<?xml version="1.0" encoding="UTF-8"?>
<svg version="1.1" xmlns="http://www.w3.org/2000/svg" width="3508" height="2481">
<path d="M0 0 C1157.64 0 2315.28 0 3508 0 C3508 818.73 3508 1637.46 3508 2481 C2350.36 2481 1192.72 2481 0 2481 C0 1662.27 0 843.54 0 0 Z " fill="#FEFEFE" transform="translate(0,0)"/>
<path d="M0 0 C10.47873003 8.23491179 17.2496753 16.53814953 22.875 28.5625 C23.51865285 29.89738039 24.16419083 31.2313533 24.81152344 32.56445312 C26.41489274 35.87822313 27.994704 39.20253214 29.56585693 42.53167725 C30.85201995 45.25161347 32.15463502 47.96358823 33.45703125 50.67578125 C34.81446455 53.50589487 36.16946241 56.33699803 37.51538086 59.17260742 C41.01198507 66.53713089 44.64691831 73.82635019 48.31347656 81.10742188 C52.08263931 88.613601 55.70860478 96.18292228 59.3125 103.76953125 C62.44425366 110.34443452 65.6620401 116.87060662 68.9375 123.375 C73.1743616 131.78854051 77.27058499 140.26084085 81.3125 148.76953125 C84.44425368 155.34443457 87.66204343 161.87060498 90.9375 168.375 C94.67274569 175.79251857 98.31276541 183.24787271 101.875 190.75 C106.11608482 199.68051289 110.4970985 208.53238403 114.94140625 217.36328125 C118.96242196 225.37389849 122.85762334 233.4400829 126.69726562 241.5390625 C127.11556641 242.42078125 127.53386719 243.3025 127.96484375 244.2109375 C128.56981689 245.48855957 128.56981689 245.48855957 129.18701172 246.79199219 C130.89512469 250.32026927 132.70059082 253.79692815 134.52172852 257.26806641 C135.4375 259.375 135.4375 259.375 135.4375 262.375 C134.65632813 262.58253906 133.87515625 262.79007813 133.0703125 263.00390625 C131.91273438 263.31199219 130.75515625 263.62007812 129.5625 263.9375 C128.9017749 264.11313477 128.2410498 264.28876953 127.56030273 264.46972656 C123.29558578 265.6057116 119.034958 266.75563364 114.77734375 267.91796875 C102.19541784 271.34468035 89.58585952 274.64111129 76.9375 277.8125 C76.22538361 277.99180054 75.51326721 278.17110107 74.77957153 278.35583496 C72.75996855 278.86365294 70.73954039 279.36802428 68.71875 279.87109375 C67.55408203 280.16169678 66.38941406 280.4522998 65.18945312 280.75170898 C62.4375 281.375 62.4375 281.375 60.4375 281.375 C37.82926658 235.25198949 37.82926658 235.25198949 28.58105469 216.03735352 C23.37005403 205.21636066 18.10816374 194.4204084 12.84347534 183.62545776 C8.53579559 174.79269609 4.23121861 165.95852715 -0.05078125 157.11328125 C-0.40861694 156.37425568 -0.76645264 155.6352301 -1.13513184 154.87380981 C-2.80363375 151.42732311 -4.47090817 147.9802507 -6.13623047 144.53222656 C-7.62521245 141.4517157 -9.12116697 138.37468686 -10.6229248 135.30038452 C-11.281432 133.95096665 -11.93809556 132.60064827 -12.59338379 131.24966431 C-13.64868666 129.07750629 -14.71212741 126.90949837 -15.77734375 124.7421875 C-16.09821457 124.07852676 -16.41908539 123.41486603 -16.74967957 122.73109436 C-19.46419736 117.24297387 -22.89194326 111.21027837 -28.5625 108.375 C-31.46688319 107.90219343 -33.58746049 107.81210791 -36.19256592 109.31604004 C-41.93908052 113.94043189 -44.74176929 119.61902125 -47.953125 126.15625 C-48.54772522 127.33457397 -49.14232544 128.51289795 -49.75494385 129.72692871 C-51.37288153 132.93406185 -52.97119763 136.15061153 -54.56607056 139.3692627 C-56.2401142 142.73898627 -57.93258463 146.09942961 -59.62304688 149.4609375 C-63.87314336 157.9222069 -68.09427882 166.39780652 -72.3125 174.875 C-74.81846457 179.91096377 -77.32596235 184.94615413 -79.83686066 189.97966003 C-80.81205685 191.93631006 -81.78475628 193.89418521 -82.75726318 195.85217285 C-86.23973071 202.84526183 -89.81476014 209.7820582 -93.46948242 216.68676758 C-97.96116265 225.17700629 -102.29762541 233.73642689 -106.5673542 242.34010887 C-107.79903276 244.82137804 -109.03389653 247.30104087 -110.26951599 249.78034973 C-113.77411474 256.81356308 -117.27395515 263.84913658 -120.77026367 270.88647461 C-122.93095213 275.23494215 -125.09573916 279.5813502 -127.26289177 283.9265995 C-128.07480932 285.55654536 -128.88522062 287.18724261 -129.69394112 288.81877708 C-133.78173933 297.06506976 -137.94370466 305.27158104 -142.33544922 313.36083984 C-142.69047799 314.0366167 -143.04550676 314.71239355 -143.41129398 315.40864849 C-145.50006773 319.18329032 -147.05587933 321.30131272 -151.25390625 322.55859375 C-153.65454102 322.79736328 -153.65454102 322.79736328 -156.125 322.8125 C-156.98472412 322.87937012 -157.84444824 322.94624023 -158.73022461 323.01513672 C-161.3424228 323.20466758 -163.94499674 323.29370179 -166.5625 323.375 C-168.14634703 323.47526363 -169.72974543 323.58297688 -171.3125 323.69921875 C-174.03528532 323.89660041 -176.74363558 324.04769817 -179.47265625 324.1640625 C-182.59863809 324.24766875 -182.59863809 324.24766875 -185.5625 325.375 C-184.25968796 327.78088312 -182.95524002 330.1858598 -181.64892578 332.58984375 C-180.54745655 334.61730385 -179.44818008 336.64595672 -178.35107422 338.67578125 C-174.95346818 344.93213927 -171.431308 351.01441084 -167.4765625 356.9375 C-166.04881905 360.74481585 -167.74530046 363.57062856 -169.37490845 367.16879272 C-170.34153875 369.18074651 -171.33731106 371.17563368 -172.34375 373.16796875 C-172.71673218 373.91347488 -173.08971436 374.65898102 -173.47399902 375.42707825 C-174.2656008 377.00726834 -175.05914058 378.58648889 -175.85449219 380.16479492 C-177.03506421 382.50804429 -178.20949272 384.85428436 -179.3828125 387.20117188 C-183.26972449 394.95575884 -187.22853208 402.66633342 -191.29296875 410.3293457 C-195.82557252 418.91156503 -200.21517732 427.5583521 -204.53678894 436.24841309 C-205.76487259 438.71773939 -206.9957286 441.18566835 -208.22717285 443.65332031 C-210.84125745 448.89273089 -213.45214546 454.13373027 -216.0625 459.375 C-219.09557369 465.4650376 -222.13008234 471.5543521 -225.16801453 477.64196777 C-226.36033608 480.03292886 -227.55017921 482.42511103 -228.73986816 484.81738281 C-233.04228352 493.45047133 -237.45914305 502.01303527 -241.97262383 510.5376482 C-245.65329751 517.50614054 -249.15209052 524.55060211 -252.6015625 531.63671875 C-253.85191742 534.18274853 -255.10588425 536.72699727 -256.359375 539.27148438 C-258.28784065 543.18835648 -260.2112895 547.10747627 -262.11816406 551.03491211 C-263.6911248 554.27346828 -265.28006858 557.50374206 -266.87958908 560.72925758 C-267.7614781 562.51826093 -268.62658384 564.3155072 -269.49111938 566.11296082 C-278.78969123 584.77515878 -299.27809995 596.98863386 -318.69140625 603.5078125 C-324.6131559 605.2964226 -330.54957668 606.92780014 -336.5625 608.375 C-337.51511719 608.60445312 -338.46773437 608.83390625 -339.44921875 609.0703125 C-403.69805321 622.085055 -492.62103482 584.78288704 -544.9375 550.50390625 C-572.1368784 532.28425461 -598.27949674 510.0349529 -617.5625 483.375 C-618.30757812 482.42496094 -619.05265625 481.47492188 -619.8203125 480.49609375 C-665.36059046 422.1823232 -681.32330533 343.52310477 -673.4375 271 C-667.52041119 223.62683177 -651.72336905 175.53216884 -625.5625 135.375 C-625.16466309 134.7577002 -624.76682617 134.14040039 -624.35693359 133.50439453 C-614.35768466 118.01979874 -603.23025926 103.44278381 -590.79296875 89.828125 C-589.33983687 88.22993442 -587.90387557 86.61590744 -586.48828125 84.984375 C-540.25070768 31.99491915 -469.0255116 0.53334341 -399.5625 -4.625 C-383.11113298 -5.48052052 -366.59714728 -5.17226615 -350.1313591 -5.0288353 C-343.97510459 -4.97995073 -337.81874045 -4.95849398 -331.66235352 -4.93286133 C-320.50693046 -4.88167541 -309.35191643 -4.80234793 -298.19677067 -4.70933819 C-290.29007433 -4.64414574 -282.38342686 -4.59283876 -274.4765625 -4.55322266 C-263.86648503 -4.49979018 -253.2567501 -4.42448863 -242.64693069 -4.33362579 C-240.01104084 -4.31258812 -237.37515403 -4.295887 -234.73922729 -4.2802124 C-230.65626279 -4.25485316 -226.57371737 -4.21456743 -222.49101257 -4.16219139 C-221.02070392 -4.1455081 -219.55033015 -4.13368804 -218.0799408 -4.1272831 C-208.13961984 -4.07944721 -200.88447365 -3.44766155 -193.26953125 3.359375 C-184.53054213 13.67818138 -183.77756936 25.53411622 -184.5625 38.375 C-185.57441041 45.24398505 -188.3277039 51.66471195 -193.5625 56.375 C-200.78865059 61.0102649 -207.10540301 60.91440835 -215.5390625 60.80078125 C-216.92616837 60.79616887 -218.31328078 60.79325554 -219.70039368 60.79191589 C-223.42244472 60.78306649 -227.14386617 60.74891327 -230.86570358 60.70956421 C-233.98636201 60.67990835 -237.10701313 60.66555687 -240.22777462 60.6514225 C-260.73769168 60.55790911 -281.24298649 60.23278851 -301.74856567 59.80764771 C-317.8663913 59.47370249 -333.9823706 59.21155811 -350.10379028 59.14282227 C-352.40124873 59.1311939 -354.69868843 59.114347 -356.99606323 59.09155273 C-375.94228355 58.91197608 -393.98957219 60.69170616 -412.4375 65.125 C-414.06764038 65.512323 -414.06764038 65.512323 -415.73071289 65.9074707 C-465.31673182 77.94088281 -510.35298485 100.10745678 -546.5625 136.375 C-547.2946875 137.06078125 -548.026875 137.7465625 -548.78125 138.453125 C-574.90409393 163.32350381 -592.82704966 198.70988713 -601.5625 233.375 C-601.7270166 234.00229004 -601.8915332 234.62958008 -602.06103516 235.27587891 C-607.0913399 254.52492695 -609.13418119 273.62736144 -609 293.5 C-608.99662628 294.47812653 -608.99325256 295.45625305 -608.98977661 296.46401978 C-608.69063126 356.6032475 -586.38922313 415.2586803 -546.5625 460.375 C-546.11793457 460.88272949 -545.67336914 461.39045898 -545.21533203 461.91357422 C-506.53745034 505.90489526 -450.15547737 533.45808657 -391.77734375 537.953125 C-365.45723655 539.63301692 -346.94380305 540.06861672 -326.23828125 522.390625 C-313.97253071 511.00252851 -306.76417514 495.44469713 -299.5625 480.625 C-297.89994459 477.23234786 -296.23167054 473.84252652 -294.5625 470.453125 C-294.15290039 469.61906128 -293.74330078 468.78499756 -293.32128906 467.92565918 C-290.00918554 461.20811221 -286.5484077 454.57626175 -283.04003906 447.95953369 C-279.78182642 441.81231419 -276.64038554 435.61456806 -273.5625 429.375 C-269.5747426 421.34302138 -265.4898772 413.37518563 -261.28125 405.45703125 C-258.11349187 399.47573715 -255.07247815 393.43703919 -252.0625 387.375 C-248.66704644 380.53662062 -245.20838708 373.74182121 -241.625 367 C-237.82362713 359.84661782 -234.16687135 352.62955612 -230.5625 345.375 C-226.57243099 337.34414613 -222.48990726 329.37524218 -218.28125 321.45703125 C-215.11349187 315.47573715 -212.07247815 309.43703919 -209.0625 303.375 C-205.66704644 296.53662062 -202.20838708 289.74182121 -198.625 283 C-194.82362713 275.84661782 -191.16687135 268.62955612 -187.5625 261.375 C-183.57243099 253.34414613 -179.48990726 245.37524218 -175.28125 237.45703125 C-172.11349187 231.47573715 -169.07247815 225.43703919 -166.0625 219.375 C-162.66704644 212.53662062 -159.20838708 205.74182121 -155.625 199 C-151.82362713 191.84661782 -148.16687135 184.62955612 -144.5625 177.375 C-140.57243099 169.34414613 -136.48990726 161.37524218 -132.28125 153.45703125 C-129.11349187 147.47573715 -126.07247815 141.43703919 -123.0625 135.375 C-119.66704644 128.53662062 -116.20838708 121.74182121 -112.625 115 C-108.82362713 107.84661782 -105.16687135 100.62955612 -101.5625 93.375 C-97.57243099 85.34414613 -93.48990726 77.37524218 -89.28125 69.45703125 C-86.11348578 63.47572564 -83.07288071 57.43684798 -80.0625 51.375 C-76.50223118 44.21545606 -72.89751355 37.08326339 -69.1875 30 C-68.79498047 29.24589844 -68.40246094 28.49179687 -67.99804688 27.71484375 C-60.22131076 12.95626788 -50.44758387 0.02456999 -34.5625 -6.625 C-21.82239474 -9.69569204 -10.65826719 -7.38454978 0 0 Z " fill="#185888" transform="translate(1888.5625,822.625)"/>
<path d="M0 0 C-54.57776896 31.36059881 -110.06135061 61.12676176 -167 88 C-168.15564453 88.5455957 -169.31128906 89.09119141 -170.50195312 89.65332031 C-188.22901879 98.01264332 -206.0548705 106.11919575 -224 114 C-222.55363474 118.70646983 -220.63180905 123.06047373 -218.45703125 127.46484375 C-218.10070618 128.19412582 -217.7443811 128.9234079 -217.3772583 129.67478943 C-216.19250957 132.09742594 -215.00247579 134.51742727 -213.8125 136.9375 C-212.97091437 138.65623731 -212.12969529 140.37515414 -211.28881836 142.09423828 C-209.011119 146.74859466 -206.72899992 151.400771 -204.44604492 156.05255127 C-200.47695518 164.14267928 -196.51561152 172.23660692 -192.55334473 180.33007812 C-191.55932101 182.3602859 -190.56509895 184.39039657 -189.57067871 186.42041016 C-183.59427182 198.62102738 -177.62852708 210.82546155 -171.79907227 223.09716797 C-169.39474123 228.14816863 -166.92702549 233.16434873 -164.41796875 238.1640625 C-158.95466609 249.05211934 -153.60769307 259.99720442 -148.25 270.9375 C-147.14144306 273.2001974 -146.0328818 275.46289268 -144.92431641 277.72558594 C-136.06846413 295.80477922 -127.22310727 313.88904622 -118.4186554 331.99333191 C-116.13608226 336.6820819 -113.83712461 341.36235784 -111.52404785 346.03613281 C-110.07706155 348.96231975 -108.63735014 351.89205012 -107.1987915 354.8223877 C-106.5320686 356.17563117 -105.86185648 357.52716194 -105.18792725 358.87683105 C-104.27657171 360.70254933 -103.37813229 362.5346984 -102.48046875 364.3671875 C-101.97410889 365.38925293 -101.46774902 366.41131836 -100.94604492 367.46435547 C-100 370 -100 370 -101 373 C-117.13205723 383.99599628 -140.32751157 385.35664653 -159.0859375 382.28125 C-162.80833417 381.55698803 -166.44408371 380.62147134 -170.07958984 379.54589844 C-171.8404745 379.04534694 -173.63332565 378.66104302 -175.42578125 378.2890625 C-179.52018999 377.15490608 -182.71952462 375.83031509 -185.23231506 372.23852539 C-186.49108045 370.00821118 -187.64452319 367.74800317 -188.7734375 365.44921875 C-189.20196014 364.60553741 -189.63048279 363.76185608 -190.07199097 362.89260864 C-191.39797617 360.26968999 -192.70134905 357.63654345 -194 355 C-194.77570625 353.44034338 -195.551422 351.8806915 -196.32714844 350.32104492 C-198.62047126 345.68553048 -200.8743264 341.03133053 -203.125 336.375 C-203.95137906 334.67141309 -204.7780451 332.96796537 -205.60498047 331.26464844 C-207.68189693 326.98490519 -209.75529684 322.7034696 -211.82763672 318.42150879 C-213.61210924 314.73569232 -215.39974616 311.05141323 -217.1875 307.3671875 C-219.8063001 301.96953039 -222.4233042 296.57100678 -225.0390625 291.171875 C-229.18664633 282.61163766 -233.34302774 274.0556811 -237.5 265.5 C-243.33569081 253.48879766 -249.1653128 241.47467284 -254.98974609 229.45800781 C-259.44229296 220.27202399 -263.89858232 211.08786986 -268.35961914 201.90600586 C-269.77612589 198.99046997 -271.19195644 196.07460733 -272.60717773 193.15844727 C-275.88704296 186.40109334 -279.17092893 179.64580162 -282.47024536 172.8979187 C-283.97606256 169.81707549 -285.47894537 166.73480586 -286.98144531 163.65234375 C-287.69795942 162.18436363 -288.41587958 160.71706889 -289.13525391 159.25048828 C-290.1262529 157.22989202 -291.11247954 155.20703359 -292.09765625 153.18359375 C-292.65976807 152.03431396 -293.22187988 150.88503418 -293.80102539 149.70092773 C-295 147 -295 147 -295 145 C-296.20398437 145.5053125 -297.40796875 146.010625 -298.6484375 146.53125 C-300.2238813 147.18768492 -301.79940636 147.84392483 -303.375 148.5 C-304.1690625 148.83386719 -304.963125 149.16773438 -305.78125 149.51171875 C-306.92207031 149.98544922 -306.92207031 149.98544922 -308.0859375 150.46875 C-308.7876709 150.76201172 -309.4894043 151.05527344 -310.21240234 151.35742188 C-312 152 -312 152 -314 152 C-306.53339973 167.76974456 -298.8451377 183.4155357 -291 199 C-284.52325662 211.86613185 -278.12274166 224.75734733 -271.93774414 237.76660156 C-268.09801403 245.83135621 -264.13074092 253.82650852 -260.10842896 261.80145264 C-254.82619538 272.27866062 -249.57265181 282.76432818 -244.5625 293.375 C-239.30342907 304.510874 -233.76674183 315.50464361 -228.23980713 326.50912476 C-223.37771573 336.19262605 -218.56531986 345.88937078 -213.9375 355.6875 C-210.59285596 362.74798779 -207.15992926 369.75192163 -203.5625 376.6875 C-203.16087646 377.47278076 -202.75925293 378.25806152 -202.34545898 379.06713867 C-198.92146198 385.80964421 -198.92146198 385.80964421 -192.75 389.75 C-192.1725 389.8325 -191.595 389.915 -191 390 C-191.14168137 391.43791516 -191.28851043 392.8753237 -191.4375 394.3125 C-191.51871094 395.11300781 -191.59992187 395.91351562 -191.68359375 396.73828125 C-192 399 -192 399 -193 402 C-200.42594199 401.29276743 -205.15596606 397.46506394 -210 392 C-213.54778158 386.81598906 -216.47509739 381.33630497 -219.2578125 375.71484375 C-219.64252213 374.94532883 -220.02723175 374.1758139 -220.42359924 373.38298035 C-221.66162541 370.90323372 -222.89353464 368.42051042 -224.125 365.9375 C-224.98659485 364.20744972 -225.84833089 362.47746974 -226.71020508 360.74755859 C-231.53905721 351.04014833 -236.29535498 341.30243711 -240.92822266 331.49975586 C-245.16612624 322.56564294 -249.61390495 313.73922012 -254.05310059 304.90405273 C-258.26568284 296.51619813 -262.42391902 288.11050301 -266.4375 279.625 C-270.98518902 270.01188506 -275.72696438 260.5024795 -280.5 251 C-285.71571929 240.61619614 -290.85756285 230.20870479 -295.82592773 219.70361328 C-300.11710698 210.6696366 -304.61263452 201.74072718 -309.10281372 192.80462646 C-314.89303543 181.27632403 -320.5269671 169.68282023 -326 158 C-326.67764404 158.26103516 -327.35528809 158.52207031 -328.0534668 158.79101562 C-334.85517397 161.41054166 -341.65837443 164.02615657 -348.46240234 166.63964844 C-351.75345005 167.90519142 -355.04288875 169.17482827 -358.33203125 170.4453125 C-360.22129201 171.17203662 -362.11061153 171.89860797 -364 172.625 C-364.88260498 172.96724609 -365.76520996 173.30949219 -366.67456055 173.66210938 C-367.48320557 173.97212891 -368.29185059 174.28214844 -369.125 174.6015625 C-370.18074219 175.00882568 -370.18074219 175.00882568 -371.2578125 175.42431641 C-373 176 -373 176 -375 176 C-364.6373077 194.74713932 -364.6373077 194.74713932 -354.0625 213.375 C-346.52313436 226.47975967 -339.27457835 239.74709646 -332 253 C-335.32586813 255.77681804 -338.63406835 258.0525968 -342.4296875 260.13671875 C-343.98441772 260.99692627 -343.98441772 260.99692627 -345.57055664 261.87451172 C-346.66102295 262.47279785 -347.75148926 263.07108398 -348.875 263.6875 C-358.36736741 268.9438598 -367.75622272 274.31845884 -377 280 C-381.01624825 276.50641419 -383.15926686 272.43709771 -385.625 267.8125 C-386.51905848 266.1696058 -387.41493313 264.52769883 -388.3125 262.88671875 C-388.76367188 262.06091309 -389.21484375 261.23510742 -389.6796875 260.38427734 C-391.59548223 256.92465246 -393.60245277 253.52298086 -395.625 250.125 C-400.0847057 242.61060277 -404.42519856 235.03003987 -408.75 227.4375 C-413.82310206 218.53139082 -418.9385888 209.65334084 -424.125 200.8125 C-429.59345811 191.48945721 -434.89363047 182.08050474 -440.14160156 172.63183594 C-443.82856672 166.01729776 -447.6452223 159.52845153 -451.7421875 153.16015625 C-453 151 -453 151 -453 149 C-452.35980927 148.80256699 -451.71961853 148.60513397 -451.06002808 148.40171814 C-444.27631144 146.30942642 -437.49302335 144.21574954 -430.70996094 142.12133789 C-428.19284545 141.34419895 -425.67556506 140.56760069 -423.15820312 139.79125977 C-408.30691975 135.21092975 -393.47029304 130.59088818 -378.66833496 125.85348511 C-374.00812008 124.36288364 -369.3457243 122.87912798 -364.68359375 121.39453125 C-362.80924156 120.7975362 -360.93489259 120.20053103 -359.06054688 119.60351562 C-358.13491943 119.30872314 -357.20929199 119.01393066 -356.25561523 118.71020508 C-354.36068955 118.10658022 -352.46583392 117.5027354 -350.57104492 116.89868164 C-347.75458537 116.00086458 -344.93786308 115.10387588 -342.12109375 114.20703125 C-341.29475937 113.94340286 -340.46842499 113.67977448 -339.61705017 113.40815735 C-334.9880613 111.93523832 -330.3516209 110.48935584 -325.70776367 109.06396484 C-318.97962345 106.9985784 -312.26564978 104.88998849 -305.5546875 102.76953125 C-304.30535431 102.37481125 -303.05602112 101.98009125 -301.76882935 101.57341003 C-299.13497592 100.74101854 -296.50128794 99.90810566 -293.86767578 99.07495117 C-291.2313371 98.24105984 -288.59461603 97.40839596 -285.95751953 96.5769043 C-270.98772025 91.85641373 -256.0441114 87.0744866 -241.17184448 82.05244446 C-234.79837093 79.90547227 -228.39904159 77.874964 -221.96630859 75.9127655 C-218.23750788 74.76537286 -214.53585723 73.54903342 -210.83984375 72.30078125 C-209.3852609 71.81313018 -207.93067077 71.32550081 -206.47607422 70.83789062 C-205.73516541 70.58885986 -204.99425659 70.3398291 -204.230896 70.08325195 C-190.85835559 65.58908189 -177.4675324 61.16905371 -164.00756836 56.94262695 C-159.38327858 55.47713538 -154.82258354 53.97660078 -150.3359375 52.12890625 C-143.5785797 49.35551494 -136.63926543 47.10410901 -129.7208252 44.7713623 C-115.59826175 40.00523262 -101.55507219 35.07240702 -87.58056641 29.88891602 C-79.62954451 26.94538976 -71.64673314 24.11962407 -63.625 21.375 C-55.32936916 18.53215064 -47.08167906 15.59064457 -38.875 12.5 C-37.90747803 12.13583984 -36.93995605 11.77167969 -35.94311523 11.39648438 C-30.70982288 9.41945313 -25.48711183 7.41655122 -20.26953125 5.3984375 C-19.16818848 4.97626953 -18.0668457 4.55410156 -16.93212891 4.11914062 C-14.81023563 3.30550871 -12.69126686 2.48419773 -10.57568359 1.65429688 C-9.6264502 1.29142578 -8.6772168 0.92855469 -7.69921875 0.5546875 C-6.86221436 0.22968262 -6.02520996 -0.09532227 -5.1628418 -0.43017578 C-3 -1 -3 -1 0 0 Z " fill="#53B947" transform="translate(2291,1054)"/>
<path d="M0 0 C4.87170478 2.96793237 8.12216354 6.79866191 10.76953125 11.80859375 C11.54031006 13.26495239 11.54031006 13.26495239 12.32666016 14.75073242 C15.49119976 20.89559055 18.60588677 27.06327281 21.6875 33.25 C22.04026001 33.95673859 22.39302002 34.66347717 22.75646973 35.39163208 C27.42591386 44.74931272 32.0242609 54.13610686 36.50585938 63.58544922 C41.16042827 73.38409589 45.92586849 83.1280846 50.6875 92.875 C52.43116147 96.44522858 54.1746307 100.01555099 55.91796875 103.5859375 C56.3480423 104.46671463 56.77811584 105.34749176 57.22122192 106.25495911 C62.92704949 117.94340912 68.60690819 129.64442045 74.26863098 141.35429382 C76.09525394 145.13203998 77.92603761 148.90772999 79.76013184 152.68185425 C81.17655989 155.59888373 82.5879018 158.51837263 84 161.4375 C84.51111328 162.48679687 85.02222656 163.53609375 85.54882812 164.6171875 C86.00708984 165.56722656 86.46535156 166.51726562 86.9375 167.49609375 C87.33839844 168.32294678 87.73929688 169.1497998 88.15234375 170.00170898 C89 172 89 172 89 174 C90.32257813 173.61521484 90.32257813 173.61521484 91.671875 173.22265625 C104.30123035 169.61032618 117.04001525 166.45148516 129.79003906 163.29907227 C138.1215778 161.23663721 146.43064306 159.11201368 154.71899414 156.88208008 C157.43732953 156.15127081 160.15796863 155.43259136 162.8828125 154.7265625 C172.08468028 152.33909088 181.23282368 149.80515347 190.36474609 147.1628418 C195.63689131 145.64694107 200.91931041 144.23174432 206.25 142.9375 C212.45019168 141.42510507 218.54969268 139.68674355 224.66088867 137.85083008 C229.26799026 136.4781788 233.88855929 135.25602598 238.5625 134.125 C245.22824292 132.51161951 251.79864771 130.63160995 258.375 128.6875 C267.59107243 125.96714971 276.83542076 123.39401644 286.11987305 120.91796875 C296.82341645 118.05968554 307.50605341 115.12713172 318.1875 112.1875 C319.07042725 111.94471313 319.95335449 111.70192627 320.86303711 111.45178223 C323.40230935 110.75347644 325.94142495 110.05460463 328.48046875 109.35546875 C329.23676071 109.14740097 329.99305267 108.93933319 330.77226257 108.72496033 C331.84828484 108.42834251 331.84828484 108.42834251 332.94604492 108.12573242 C333.62903656 107.93957367 334.3120282 107.75341492 335.01571655 107.56161499 C336.9505996 107.01398188 338.86715248 106.40284383 340.7824707 105.7902832 C343.8041347 105.04810805 345.16689655 104.86675862 348 106 C319.34200693 120.37305563 290.58188822 134.3804569 261.18066406 147.17724609 C257.82731273 148.63706435 254.47999572 150.11003477 251.13510132 151.58911133 C211.17594739 169.25109988 170.08995161 185.15990696 128.44134521 198.38342285 C119.5396561 201.21062641 110.65042692 204.04767029 101.875 207.25 C95.14014621 209.69428382 88.3163829 211.68937584 81.41625977 213.61254883 C74.33900292 215.59122579 67.32558736 217.74325651 60.3125 219.9375 C48.18840238 223.71505658 35.96557767 227.0368174 23.69042969 230.28320312 C16.26549611 232.26138869 8.89772894 234.43681811 1.53125 236.62109375 C-8.87550215 239.6968075 -19.27907895 242.65048359 -29.82250977 245.22192383 C-35.43136996 246.59310451 -41.00251648 248.06752771 -46.5625 249.625 C-47.6772168 249.93691284 -47.6772168 249.93691284 -48.81445312 250.25512695 C-52.02064467 251.15533245 -55.22414917 252.06415216 -58.42578125 252.98046875 C-59.88564453 253.39232422 -59.88564453 253.39232422 -61.375 253.8125 C-62.18710938 254.04582031 -62.99921875 254.27914063 -63.8359375 254.51953125 C-66 255 -66 255 -70 255 C-66.76690222 261.34652264 -63.53179178 267.69201656 -60.29541016 274.03686523 C-59.19926519 276.18637956 -58.10354771 278.33611194 -57.00830078 280.48608398 C-51.54511142 291.20965869 -46.07133944 301.92654208 -40.46875 312.578125 C-40.07507233 313.32681351 -39.68139465 314.07550201 -39.27578735 314.84687805 C-36.32994715 320.4251873 -33.28644802 325.94307458 -30.1796875 331.43359375 C-29 334 -29 334 -29 338 C-34.83329215 340.65464247 -40.66844857 343.30515374 -46.50488281 345.95288086 C-48.4877305 346.85298509 -50.47015884 347.75401373 -52.45214844 348.65600586 C-55.3107345 349.95673434 -58.17084149 351.25406627 -61.03125 352.55078125 C-61.90865845 352.9508992 -62.78606689 353.35101715 -63.69006348 353.76325989 C-68.73323453 356.04497504 -73.79455623 358.11645127 -79 360 C-85.29608287 349.12135777 -91.4828103 338.19470837 -97.4375 327.125 C-101.64545283 319.30477209 -105.92354395 311.53263727 -110.3125 303.8125 C-115.20733246 295.20009208 -120.0333232 286.55193738 -124.8125 277.875 C-125.14521912 277.27101379 -125.47793823 276.66702759 -125.82073975 276.04473877 C-127.52161286 272.95654642 -129.22154479 269.8678373 -130.92089844 266.77880859 C-134.42291525 260.41310106 -137.92934126 254.04982444 -141.4375 247.6875 C-141.77319 247.07860931 -142.10888 246.46971863 -142.45474243 245.84237671 C-147.58778078 236.53396459 -152.75747611 227.24722965 -158 218 C-154.94829259 216.25742701 -152.52873281 215.683651 -149.03515625 215.4375 C-147.58592773 215.32535156 -147.58592773 215.32535156 -146.10742188 215.2109375 C-145.10259766 215.14132812 -144.09777344 215.07171875 -143.0625 215 C-140.07914678 214.78591219 -137.10496869 214.55693502 -134.12890625 214.25683594 C-131 214 -131 214 -127.66796875 214.06347656 C-123.93771202 213.94065634 -121.40105067 213.56309669 -118 212 C-113.88000345 207.12304979 -111.49776929 201.52922929 -108.875 195.75 C-108.02689987 193.97977226 -107.17342461 192.21211181 -106.31518555 190.44677734 C-104.34464604 186.38190441 -102.39960737 182.30587754 -100.46533203 178.22363281 C-96.4902552 169.88396929 -92.35654933 161.62507097 -88.21484375 153.3671875 C-87.82986473 152.59951553 -87.44488571 151.83184357 -87.04824066 151.04090881 C-85.47930302 147.91304818 -83.90997274 144.78538547 -82.33968353 141.65820312 C-79.63620458 136.27286342 -76.94442288 130.88180631 -74.25927734 125.48730469 C-62.06511197 101.00003614 -62.06511197 101.00003614 -57.05859375 91.62890625 C-52.38558914 82.87955172 -47.98561744 73.99824974 -43.578125 65.11328125 C-42.81569449 63.57795969 -42.0532177 62.04266112 -41.29069519 60.50738525 C-38.14087985 54.16318405 -34.99263222 47.81823395 -31.85693359 41.46704102 C-29.91369554 37.53184045 -27.96252315 33.60066139 -26.00624847 29.6719265 C-25.27137606 28.19236801 -24.53941219 26.71136078 -23.81058502 25.22881508 C-10.31024246 -2.22377779 -10.31024246 -2.22377779 0 0 Z " fill="#F47922" transform="translate(1860,930)"/>
<path d="M0 0 C1.16818237 1.52581787 1.16818237 1.52581787 2.12451172 3.53027344 C2.4944928 4.28759766 2.86447388 5.04492188 3.2456665 5.82519531 C3.63639343 6.66147461 4.02712036 7.49775391 4.4296875 8.359375 C4.85264099 9.23464844 5.27559448 10.10992188 5.71136475 11.01171875 C7.11239164 13.91836188 8.49344432 16.83405829 9.875 19.75 C10.85056859 21.78228769 11.82764106 23.81385409 12.80615234 25.84472656 C14.84854369 30.0864534 16.8843188 34.33126616 18.91601562 38.578125 C23.29133487 47.70826603 27.75739687 56.7938036 32.21826172 65.88235474 C38.92619227 79.5565154 45.61294504 93.24063694 52.15087891 106.99707031 C54.57364293 112.08380489 57.05885024 117.1362443 59.5859375 122.171875 C65.04794535 133.057323 70.39358789 143.99982013 75.75 154.9375 C76.85855694 157.2001974 77.9671182 159.46289268 79.07568359 161.72558594 C87.93153587 179.80477922 96.77689273 197.88904622 105.5813446 215.99333191 C107.86391774 220.6820819 110.16287539 225.36235784 112.47595215 230.03613281 C113.92293845 232.96231975 115.36264986 235.89205012 116.8012085 238.8223877 C117.4679314 240.17563117 118.13814352 241.52716194 118.81207275 242.87683105 C119.72342829 244.70254933 120.62186771 246.5346984 121.51953125 248.3671875 C122.02589111 249.38925293 122.53225098 250.41131836 123.05395508 251.46435547 C124 254 124 254 123 257 C106.86794277 267.99599628 83.67248843 269.35664653 64.9140625 266.28125 C61.19166583 265.55698803 57.55591629 264.62147134 53.92041016 263.54589844 C52.1595255 263.04534694 50.36667435 262.66104302 48.57421875 262.2890625 C44.47981001 261.15490608 41.28047538 259.83031509 38.76768494 256.23852539 C37.50891955 254.00821118 36.35547681 251.74800317 35.2265625 249.44921875 C34.79803986 248.60553741 34.36951721 247.76185608 33.92800903 246.89260864 C32.60202383 244.26968999 31.29865095 241.63654345 30 239 C29.22429375 237.44034338 28.448578 235.8806915 27.67285156 234.32104492 C25.37952874 229.68553048 23.1256736 225.03133053 20.875 220.375 C20.04862094 218.67141309 19.2219549 216.96796537 18.39501953 215.26464844 C16.31810307 210.98490519 14.24470316 206.7034696 12.17236328 202.42150879 C10.38789076 198.73569232 8.60025384 195.05141323 6.8125 191.3671875 C4.1936999 185.96953039 1.5766958 180.57100678 -1.0390625 175.171875 C-5.18664633 166.61163766 -9.34302774 158.0556811 -13.5 149.5 C-19.33569081 137.48879766 -25.1653128 125.47467284 -30.98974609 113.45800781 C-35.44226104 104.27208984 -39.89843946 95.08796329 -44.35961914 85.90625 C-45.77646197 82.99006269 -47.19226558 80.07337452 -48.60717773 77.15625 C-51.88223216 70.40581837 -55.16375426 63.65880765 -58.47024536 56.92370605 C-59.97703586 53.85305537 -61.47948309 50.78029009 -62.98144531 47.70727539 C-63.69724199 46.24577636 -64.41515023 44.78530945 -65.13525391 43.32592773 C-66.12803062 41.31358657 -67.11360433 39.29786852 -68.09765625 37.28125 C-68.94082397 35.56518555 -68.94082397 35.56518555 -69.80102539 33.81445312 C-71 31 -71 31 -71 28 C-52.27021571 19.69054763 -33.45407416 11.59097768 -14.61083984 3.54296875 C-12.76912179 2.75597361 -10.92767149 1.96535263 -9.12139893 1.10009766 C-3.59861803 -1.48988096 -3.59861803 -1.48988096 0 0 Z " fill="#185888" transform="translate(2067,1170)"/>
<path d="M0 0 C4.87170478 2.96793237 8.12216354 6.79866191 10.76953125 11.80859375 C11.54031006 13.26495239 11.54031006 13.26495239 12.32666016 14.75073242 C15.49119976 20.89559055 18.60588677 27.06327281 21.6875 33.25 C22.04026001 33.95673859 22.39302002 34.66347717 22.75646973 35.39163208 C27.42591386 44.74931272 32.0242609 54.13610686 36.50585938 63.58544922 C41.16042827 73.38409589 45.92586849 83.1280846 50.6875 92.875 C52.43116147 96.44522858 54.1746307 100.01555099 55.91796875 103.5859375 C56.3480423 104.46671463 56.77811584 105.34749176 57.22122192 106.25495911 C62.92704949 117.94340912 68.60690819 129.64442045 74.26863098 141.35429382 C76.09525394 145.13203998 77.92603761 148.90772999 79.76013184 152.68185425 C81.17655989 155.59888373 82.5879018 158.51837263 84 161.4375 C84.51111328 162.48679687 85.02222656 163.53609375 85.54882812 164.6171875 C86.00708984 165.56722656 86.46535156 166.51726562 86.9375 167.49609375 C87.33839844 168.32294678 87.73929688 169.1497998 88.15234375 170.00170898 C89 172 89 172 89 174 C86.43923903 174.67404284 83.87673417 175.339414 81.3125 176 C80.59126953 176.19078125 79.87003906 176.3815625 79.12695312 176.578125 C78.42119141 176.75859375 77.71542969 176.9390625 76.98828125 177.125 C76.34415283 177.29257813 75.70002441 177.46015625 75.03637695 177.6328125 C72.66098028 178.06113004 70.40863294 178.05852411 68 178 C67.55954346 177.11836182 67.11908691 176.23672363 66.6652832 175.32836914 C63.05919744 168.11238049 59.44862711 160.89866906 55.83126831 153.68832397 C53.80185392 149.64237862 51.77426948 145.59551735 49.74682617 141.54858398 C48.71337405 139.48669572 47.67920287 137.42516769 46.64428711 135.36401367 C40.62144857 123.36713164 34.69301229 111.33443283 28.92826843 99.21128845 C25.09002475 91.15157328 21.12454965 83.16117699 17.10458374 75.19085693 C10.28684709 61.66840041 3.61501479 48.0905145 -2.84619141 34.39355469 C-4.52575735 30.90932605 -6.29478696 27.47143977 -8.07104492 24.03564453 C-9 22 -9 22 -9 20 C-12.26330303 23.17265572 -15.18796895 26.42487505 -18 30 C-17.60442146 30.78782616 -17.60442146 30.78782616 -17.20085144 31.59156799 C-14.39049275 37.18970601 -11.58324266 42.78939565 -8.77758789 48.38989258 C-7.73797796 50.4641642 -6.69764351 52.53807291 -5.65649414 54.61157227 C0.39337339 66.66155031 6.34836691 78.74792217 12.13960266 90.92445374 C15.68087549 98.3619939 19.3247127 105.74186325 23.03817749 113.09466553 C28.47391285 123.86265427 33.80784785 134.66978425 38.96411133 145.57495117 C41.43734226 150.78765984 43.96884281 155.96726803 46.5625 161.12109375 C46.86444778 161.72145447 47.16639557 162.32181519 47.47749329 162.94036865 C48.95800505 165.88069821 50.44470286 168.81772375 51.93823242 171.75146484 C52.46779541 172.79898926 52.9973584 173.84651367 53.54296875 174.92578125 C54.01758545 175.85817627 54.49220215 176.79057129 54.98120117 177.7512207 C56 180 56 180 56 182 C47.71739554 183.87172629 39.42771933 185.71082745 31.13372803 187.53137207 C29.7137269 187.84324508 28.29384509 188.15566184 26.87408447 188.46862793 C2.2203707 193.90100464 -22.52481673 198.49336705 -47.41691589 202.69503784 C-52.70464916 203.59222196 -57.97598123 204.55115023 -63.2421875 205.56640625 C-70.96722395 207.03380013 -78.71680069 208.21128123 -86.50146484 209.30761719 C-88.76348007 209.62690272 -91.02431766 209.95374762 -93.28515625 210.28125 C-101.51205515 211.45892057 -109.70555439 212.41684946 -118 213 C-117.54930145 212.09901077 -117.09860291 211.19802155 -116.63424683 210.26972961 C-112.23807863 201.48004491 -107.84667007 192.68799282 -103.45771599 183.89470387 C-99.3352921 175.6356268 -95.21091029 167.37752863 -91.08580208 159.11979198 C-88.33038824 153.60374804 -85.5757281 148.08733035 -82.82275391 142.57006836 C-80.13096932 137.17551998 -77.4371492 131.78199234 -74.74200058 126.38912392 C-73.7280095 124.35931986 -72.71471206 122.32916912 -71.70218277 120.29863548 C-66.43728089 109.74147251 -61.10319308 99.23199338 -55.57909966 88.80794334 C-51.81386126 81.68782393 -48.20873446 74.49422158 -44.6442337 67.27193642 C-43.53588625 65.0277563 -42.42348219 62.78562646 -41.30999756 60.54399109 C-38.15297472 54.18797009 -34.99873796 47.83060081 -31.85693359 41.46704102 C-29.91369554 37.53184045 -27.96252315 33.60066139 -26.00624847 29.6719265 C-25.27137606 28.19236801 -24.53941219 26.71136078 -23.81058502 25.22881508 C-10.31024246 -2.22377779 -10.31024246 -2.22377779 0 0 Z " fill="#FDFDFD" transform="translate(1860,930)"/>
<path d="M0 0 C87.39786074 0 87.39786074 0 106.7265625 18.640625 C122.39641951 34.90281338 127.50195194 54.037735 127.21875 76.23046875 C127.0230207 82.40939795 125.83558033 88.10557179 124 94 C123.7215625 94.92941406 123.443125 95.85882812 123.15625 96.81640625 C117.55248765 113.79677234 107.31459616 126.01718471 91.82421875 134.80078125 C63.7374931 148.62123356 29.35777265 142 0 142 C0 95.14 0 48.28 0 0 Z " fill="#195988" transform="translate(1650,1475)"/>
<path d="M0 0 C1.25159912 0.00523682 2.50319824 0.01047363 3.79272461 0.01586914 C4.78942421 0.01799156 4.78942421 0.01799156 5.80625916 0.02015686 C7.93590735 0.02577021 10.06545175 0.03832485 12.19506836 0.05102539 C13.63582205 0.05603868 15.07657739 0.06060188 16.51733398 0.06469727 C20.05577938 0.07574394 23.59416375 0.09301747 27.13256836 0.11352539 C28.45280649 3.05867199 29.77304123 6.0038201 31.09326172 8.94897461 C32.26197056 11.55610401 33.43076321 14.16319583 34.59960938 16.77026367 C37.53381104 23.31507444 40.46726478 29.86021685 43.39819336 36.40649414 C49.92995496 50.99317635 49.92995496 50.99317635 56.49975586 65.56274414 C56.9230014 66.49802193 56.9230014 66.49802193 57.35479736 67.45219421 C57.92948364 68.72204609 58.50417033 69.99189777 59.07885742 71.26174927 C64.61924356 83.50568253 70.11250393 95.76994357 75.57006836 108.05102539 C75.89923248 108.79144073 76.22839661 109.53185608 76.5675354 110.29470825 C78.76170567 115.23174627 80.9494072 120.17161011 83.13256836 125.11352539 C83.46524719 125.86563293 83.79792603 126.61774048 84.14068604 127.39263916 C85.13095402 129.63332275 86.11850766 131.87518239 87.10522461 134.11743164 C87.5623307 135.15092995 87.5623307 135.15092995 88.02867126 136.20530701 C90.13256836 140.99867625 90.13256836 140.99867625 90.13256836 142.11352539 C80.23256836 142.11352539 70.33256836 142.11352539 60.13256836 142.11352539 C56.50256836 133.86352539 52.87256836 125.61352539 49.13256836 117.11352539 C24.38256836 116.78352539 -0.36743164 116.45352539 -25.86743164 116.11352539 C-26.85743164 119.08352539 -27.84743164 122.05352539 -28.86743164 125.11352539 C-29.51193764 126.66177431 -30.18430619 128.19947733 -30.91040039 129.71118164 C-31.22775146 130.37899658 -31.54510254 131.04681152 -31.87207031 131.73486328 C-32.26241455 132.54044678 -32.65275879 133.34603027 -33.05493164 134.17602539 C-34.31305664 136.79540039 -35.57118164 139.41477539 -36.86743164 142.11352539 C-46.43743164 142.11352539 -56.00743164 142.11352539 -65.86743164 142.11352539 C-65.16471204 138.5999274 -64.68092866 136.35461375 -63.26367188 133.26171875 C-62.93435165 132.53597153 -62.60503143 131.8102243 -62.26573181 131.06248474 C-61.90612869 130.28397659 -61.54652557 129.50546844 -61.17602539 128.70336914 C-60.79946304 127.876642 -60.4229007 127.04991486 -60.03492737 126.19813538 C-59.22166792 124.41393749 -58.40606667 122.63080557 -57.58837891 120.84863281 C-55.39877678 116.07582499 -53.22625895 111.29523794 -51.05102539 106.51586914 C-50.388694 105.06257706 -50.388694 105.06257706 -49.71298218 103.57992554 C-45.70703074 94.78298966 -41.77711337 85.95356352 -37.86743164 77.11352539 C-31.13788843 61.91083254 -24.29977347 46.75845195 -17.42407227 31.62133789 C-16.66414139 29.94693371 -15.90437215 28.27245617 -15.14477539 26.59790039 C-14.78128998 25.79694946 -14.41780457 24.99599854 -14.04330444 24.17077637 C-11.29667091 18.10202715 -8.61477194 12.0064974 -5.98899841 5.88446045 C-3.50670383 0.13883502 -3.50670383 0.13883502 0 0 Z " fill="#1A5989" transform="translate(2043.867431640625,1474.886474609375)"/>
<path d="M0 0 C23 0 23 0 29.1875 6.0625 C30.63354492 8.12719727 30.63354492 8.12719727 31.60546875 9.94140625 C34.01668432 14.1526998 36.90863558 17.77197685 40 21.5 C41.01168496 22.75705025 42.02081222 24.01616333 43.02734375 25.27734375 C43.52218262 25.89593262 44.01702148 26.51452148 44.52685547 27.15185547 C48.25945788 31.83461984 51.94826885 36.55198526 55.64111328 41.26611328 C57.92453295 44.17966817 60.21245445 47.08968416 62.5 50 C65.24048208 53.48656157 67.98009622 56.97378146 70.71484375 60.46484375 C77.42339953 69.02138046 84.20687048 77.5085881 91 86 C91.33 57.62 91.66 29.24 92 0 C100.91 0 109.82 0 119 0 C119 46.86 119 93.72 119 142 C113.06 142 107.12 142 101 142 C94.58869862 135.4493225 94.58869862 135.4493225 92.69140625 132.2421875 C89.83873525 127.64663415 86.55032578 123.47978991 83.1875 119.25 C81.99156876 117.71503631 80.79757305 116.17856272 79.60546875 114.640625 C76.07207843 110.09237548 72.53631149 105.54597846 69 101 C65.46368851 96.45402154 61.92792157 91.90762452 58.39453125 87.359375 C57.20055192 85.82289251 56.00654176 84.28643397 54.8125 82.75 C54.23161621 82.00226318 53.65073242 81.25452637 53.05224609 80.48413086 C50.3652869 77.02843863 47.67211586 73.57818395 44.95703125 70.14453125 C44.23713013 69.2333252 44.23713013 69.2333252 43.50268555 68.30371094 C42.23554027 66.70220817 40.96556091 65.10294886 39.6953125 63.50390625 C36.03279933 58.74263913 32.5331287 53.85805197 29 49 C28.67 79.69 28.34 110.38 28 142 C18.76 142 9.52 142 0 142 C0 95.14 0 48.28 0 0 Z " fill="#1C5B8A" transform="translate(1436,1475)"/>
<path d="M0 0 C48.75471698 0 48.75471698 0 61.12109375 12.0703125 C70.89395682 22.36319947 73.40004113 33.97917332 73.37060547 47.88916016 C72.99930928 61.12789736 67.52446874 72.36939201 57.9765625 81.43359375 C41.63665204 94.38281133 19.39935037 90 0 90 C0 60.3 0 30.6 0 0 Z " fill="#FEFEFE" transform="translate(1677,1501)"/>
<path d="M0 0 C8.91 0 17.82 0 27 0 C27 46.86 27 93.72 27 142 C18.09 142 9.18 142 0 142 C0 95.14 0 48.28 0 0 Z " fill="#195989" transform="translate(1867,1475)"/>
<path d="M0 0 C8.91 0 17.82 0 27 0 C27 46.86 27 93.72 27 142 C18.09 142 9.18 142 0 142 C0 95.14 0 48.28 0 0 Z " fill="#195989" transform="translate(1310,1475)"/>
<path d="M0 0 C0.4230542 0.8468335 0.8461084 1.69366699 1.28198242 2.56616211 C5.05909472 10.12449248 8.84159844 17.68009542 12.62942505 25.23306274 C14.93253185 29.82636613 17.23379675 34.42059128 19.53491211 39.01489258 C20.71387345 41.36779564 21.89355351 43.72033871 23.07397461 46.07250977 C29.54837924 58.9753117 35.95194762 71.90293914 42.14826965 84.94178772 C45.95810465 92.94870243 49.89856343 100.88460956 53.89157104 108.80145264 C59.17380462 119.27866062 64.42734819 129.76432818 69.4375 140.375 C74.69657093 151.510874 80.23325817 162.50464361 85.76019287 173.50912476 C90.62228427 183.19262605 95.43468014 192.88937078 100.0625 202.6875 C103.40714404 209.74798779 106.84007074 216.75192163 110.4375 223.6875 C111.0399353 224.86542114 111.0399353 224.86542114 111.65454102 226.06713867 C115.07853802 232.80964421 115.07853802 232.80964421 121.25 236.75 C121.8275 236.8325 122.405 236.915 123 237 C122.85831863 238.43791516 122.71148957 239.8753237 122.5625 241.3125 C122.44068359 242.51326172 122.44068359 242.51326172 122.31640625 243.73828125 C122 246 122 246 121 249 C113.57405801 248.29276743 108.84403394 244.46506394 104 239 C100.45221842 233.81598906 97.52490261 228.33630497 94.7421875 222.71484375 C94.35747787 221.94532883 93.97276825 221.1758139 93.57640076 220.38298035 C92.33837459 217.90323372 91.10646536 215.42051042 89.875 212.9375 C89.01340515 211.20744972 88.15166911 209.47746974 87.28979492 207.74755859 C82.46094279 198.04014833 77.70464502 188.30243711 73.07177734 178.49975586 C68.83387376 169.56564294 64.38609505 160.73922012 59.94689941 151.90405273 C55.73431716 143.51619813 51.57608098 135.11050301 47.5625 126.625 C43.01481098 117.01188506 38.27303562 107.5024795 33.5 98 C28.28428071 87.61619614 23.14243715 77.20870479 18.17407227 66.70361328 C14.54975657 59.07354668 10.78144408 51.51993983 6.99047852 43.97180176 C-3.16711839 23.74492464 -3.16711839 23.74492464 -8.0625 13.625 C-8.4860376 12.76374512 -8.9095752 11.90249023 -9.34594727 11.01513672 C-10.29306284 9.03881538 -11.15679144 7.02283793 -12 5 C-9.82600171 0.65200343 -4.43891837 0 0 0 Z " fill="#1B5B8A" transform="translate(1977,1207)"/>
<path d="M0 0 C0.66 0 1.32 0 2 0 C17.42136712 30.65363995 17.42136712 30.65363995 23.375 43.25 C28.10052036 53.24259251 33.03996677 63.12250241 38 73 C43.34713214 83.64842938 48.6409009 94.31099171 53.72070312 105.09033203 C56.58468842 111.13202925 59.55153372 117.11657258 62.5625 123.0859375 C62.96738647 123.88980896 63.37227295 124.69368042 63.78942871 125.52191162 C65.81698863 129.54549163 67.85141475 133.56537004 69.89648438 137.58007812 C70.64996339 139.07150154 71.40322786 140.56303336 72.15625 142.0546875 C72.49954346 142.72261322 72.84283691 143.39053894 73.1965332 144.07870483 C75.62676168 148.91363988 77.40581504 153.83178231 79 159 C70.62345024 161.41358214 70.62345024 161.41358214 66 160 C64.59957886 158.28817749 64.59957886 158.28817749 63.49560547 156.02880859 C63.07101044 155.18216644 62.64641541 154.33552429 62.20895386 153.46322632 C61.76617096 152.53434601 61.32338806 151.6054657 60.8671875 150.6484375 C60.15116867 149.20085556 60.15116867 149.20085556 59.42068481 147.72402954 C57.88841699 144.61572195 56.38162778 141.49580294 54.875 138.375 C53.88443863 136.35727379 52.89226658 134.34033746 51.8984375 132.32421875 C46.47155478 121.28367339 41.17053544 110.18322945 35.87619019 99.07870483 C32.32435388 91.64310825 28.67656238 84.26066146 24.96182251 76.90533447 C19.52662985 66.13842079 14.1984728 55.33020667 9.03588867 44.42944336 C3.54091861 32.8625679 -2.23748275 21.43527567 -8 10 C-7.04367001 8.70684939 -6.08486149 7.41553147 -5.125 6.125 C-4.59132813 5.40570312 -4.05765625 4.68640625 -3.5078125 3.9453125 C-2 2 -2 2 0 0 Z " fill="#1C5B8A" transform="translate(1849,950)"/>
<path d="M0 0 C3.37834953 2.72192621 4.67811084 6.42053183 6.29296875 10.31640625 C6.7542215 11.40368263 6.7542215 11.40368263 7.22479248 12.51292419 C8.21903867 14.86002517 9.20334127 17.21115376 10.1875 19.5625 C11.20026516 21.96210844 12.21541825 24.36069547 13.23097229 26.75912476 C13.89780282 28.33400852 14.56385409 29.90922247 15.22911072 31.48477173 C18.01681941 38.07617007 20.90573621 44.61886686 23.91674805 51.11157227 C25.20925092 53.94774524 26 55.83922201 26 59 C9.17 59 -7.66 59 -25 59 C-23.07339444 53.22018333 -21.14978856 47.76233183 -18.671875 42.24609375 C-18.20373383 41.19011742 -18.20373383 41.19011742 -17.72613525 40.11280823 C-16.73795756 37.88596207 -15.74418593 35.66166925 -14.75 33.4375 C-14.0998693 31.97608539 -13.45012739 30.51449775 -12.80078125 29.05273438 C-11.83363814 26.87575171 -10.8661953 24.69890871 -9.89709473 22.52279663 C-6.56202037 15.03094605 -3.27765209 7.51711326 0 0 Z " fill="#FCFDFD" transform="translate(2055,1506)"/>
<path d="M0 0 C-4.62 2.64 -9.24 5.28 -14 8 C-14.33 7.01 -14.66 6.02 -15 5 C-13.54341873 2.08683746 -11.63839986 1.90792226 -8.625 0.8125 C-7.15933594 0.26529297 -7.15933594 0.26529297 -5.6640625 -0.29296875 C-3 -1 -3 -1 0 0 Z " fill="#65C15C" transform="translate(2291,1054)"/>
</svg>
